<?xml version="1.0" encoding="UTF-8"?>
<svg version="1.1" viewBox="0 0 700 700" xmlns="http://www.w3.org/2000/svg">
 <path d="m455 70h-17.5v-17.5c0-4.6406-1.8438-9.0938-5.125-12.375s-7.7344-5.125-12.375-5.125h-140c-4.6406 0-9.0938 1.8438-12.375 5.125s-5.125 7.7344-5.125 12.375v17.5h-17.5c-18.566 0-36.371 7.375-49.496 20.504-13.129 13.125-20.504 30.93-20.504 49.496v315c0 18.566 7.375 36.371 20.504 49.496 13.125 13.129 30.93 20.504 49.496 20.504h210c18.566 0 36.371-7.375 49.496-20.504 13.129-13.125 20.504-30.93 20.504-49.496v-315c0-18.566-7.375-36.371-20.504-49.496-13.125-13.129-30.93-20.504-49.496-20.504zm-157.5 0h105v35h-105zm192.5 385c0 9.2812-3.6875 18.184-10.25 24.75-6.5664 6.5625-15.469 10.25-24.75 10.25h-210c-9.2812 0-18.184-3.6875-24.75-10.25-6.5625-6.5664-10.25-15.469-10.25-24.75v-315c0-9.2812 3.6875-18.184 10.25-24.75 6.5664-6.5625 15.469-10.25 24.75-10.25h17.5v17.5c0 4.6406 1.8438 9.0938 5.125 12.375s7.7344 5.125 12.375 5.125h140c4.6406 0 9.0938-1.8438 12.375-5.125s5.125-7.7344 5.125-12.375v-17.5h17.5c9.2812 0 18.184 3.6875 24.75 10.25 6.5625 6.5664 10.25 15.469 10.25 24.75zm-70-140c0 4.6406-1.8438 9.0938-5.125 12.375s-7.7344 5.125-12.375 5.125h-105c-6.2539 0-12.031-3.3359-15.156-8.75s-3.125-12.086 0-17.5 8.9023-8.75 15.156-8.75h105c4.6406 0 9.0938 1.8438 12.375 5.125s5.125 7.7344 5.125 12.375zm0-87.5c0 4.6406-1.8438 9.0938-5.125 12.375s-7.7344 5.125-12.375 5.125h-105c-6.2539 0-12.031-3.3359-15.156-8.75s-3.125-12.086 0-17.5 8.9023-8.75 15.156-8.75h105c4.6406 0 9.0938 1.8438 12.375 5.125s5.125 7.7344 5.125 12.375zm0 175c0 4.6406-1.8438 9.0938-5.125 12.375s-7.7344 5.125-12.375 5.125h-105c-6.2539 0-12.031-3.3359-15.156-8.75s-3.125-12.086 0-17.5 8.9023-8.75 15.156-8.75h105c4.6406 0 9.0938 1.8438 12.375 5.125s5.125 7.7344 5.125 12.375z"/>
</svg>
